<?xml version="1.0" encoding="utf-8"?>
<!-- Generator: Adobe Illustrator 24.0.0, SVG Export Plug-In . SVG Version: 6.00 Build 0)  -->
<svg version="1.1" id="圖層_1" xmlns="http://www.w3.org/2000/svg" xmlns:xlink="http://www.w3.org/1999/xlink" x="0px" y="0px"
	 viewBox="0 0 12 12" style="enable-background:new 0 0 12 12;" xml:space="preserve">
<style type="text/css">
	.st0{fill:#6E5300;stroke:#6E5300;stroke-width:0.4042;stroke-miterlimit:10;}
</style>
<path class="st0" d="M10.7,1.7H1.3c-0.6,0-1.1,0.5-1.1,1.1v6.5c0,0.6,0.5,1.1,1.1,1.1h9.3c0.6,0,1.1-0.5,1.1-1.1V2.8
	C11.8,2.2,11.3,1.7,10.7,1.7z M10.7,2.4c0,0,0.1,0,0.1,0L6,6.6L1.2,2.4c0,0,0.1,0,0.1,0L10.7,2.4z M10.7,9.6H1.3
	C1.1,9.6,1,9.4,1,9.2v-6l4.8,4.2C5.8,7.4,5.9,7.4,6,7.4s0.2,0,0.2-0.1L11,3.2v6C11,9.4,10.9,9.6,10.7,9.6z"/>
</svg>
