<?xml version="1.0" encoding="UTF-8"?>
<svg width="14px" height="14px" viewBox="0 0 14 14" version="1.1" xmlns="http://www.w3.org/2000/svg" xmlns:xlink="http://www.w3.org/1999/xlink">
    <!-- Generator: Sketch 54.1 (76490) - https://sketchapp.com -->
    <title>Path</title>
    <desc>Created with Sketch.</desc>
    <g id="PC" stroke="none" stroke-width="1" fill="none" fill-rule="evenodd">
        <g id="7_store-copy-4" transform="translate(-223.000000, -991.000000)" fill="#FABE00" fill-rule="nonzero">
            <path d="M236.963477,996.290432 C236.871831,995.994618 236.620391,995.784517 236.322914,995.75654 L232.282138,995.373676 L230.684307,991.47114 C230.566491,991.185134 230.298174,991 230.000056,991 C229.701938,991 229.433622,991.185134 229.315806,991.471809 L227.717974,995.373676 L223.676558,995.75654 C223.379615,995.785185 223.128816,995.994618 223.036635,996.290432 C222.944455,996.586246 223.029586,996.910705 223.254216,997.115233 L226.308563,999.910418 L225.407907,1004.05036 C225.342003,1004.35476 225.455226,1004.66941 225.697266,1004.85198 C225.827366,1004.95007 225.979576,1005 226.133068,1005 C226.26541,1005 226.396685,1004.96277 226.514501,1004.88921 L230.000056,1002.71541 L233.48433,1004.88921 C233.739296,1005.04927 234.060699,1005.03466 234.302206,1004.85198 C234.544353,1004.66885 234.657469,1004.35409 234.591565,1004.05036 L233.690909,999.910418 L236.745256,997.115791 C236.969886,996.910705 237.055658,996.586803 236.963477,996.290432 Z" id="Path"></path>
        </g>
    </g>
</svg>